<mxfile host="app.diagrams.net" modified="2023-02-11T16:56:39.463Z" agent="5.0 (Macintosh; Intel Mac OS X 10_15_7) AppleWebKit/537.36 (KHTML, like Gecko) Chrome/109.0.0.0 Safari/537.36" etag="XFAjC6kRSRkAUnCxl_fR" version="20.7.2" type="github">
  <diagram id="C5RBs43oDa-KdzZeNtuy" name="Page-1">
    <mxGraphModel dx="1098" dy="926" grid="1" gridSize="10" guides="1" tooltips="1" connect="1" arrows="1" fold="1" page="1" pageScale="1" pageWidth="827" pageHeight="1169" math="0" shadow="0">
      <root>
        <mxCell id="WIyWlLk6GJQsqaUBKTNV-0" />
        <mxCell id="WIyWlLk6GJQsqaUBKTNV-1" parent="WIyWlLk6GJQsqaUBKTNV-0" />
        <mxCell id="QM12SLwJ1Zczv1HlC3ZJ-2" value="" style="edgeStyle=orthogonalEdgeStyle;rounded=0;orthogonalLoop=1;jettySize=auto;html=1;" edge="1" parent="WIyWlLk6GJQsqaUBKTNV-1" source="QM12SLwJ1Zczv1HlC3ZJ-0" target="QM12SLwJ1Zczv1HlC3ZJ-1">
          <mxGeometry relative="1" as="geometry" />
        </mxCell>
        <mxCell id="QM12SLwJ1Zczv1HlC3ZJ-0" value="Start" style="ellipse;whiteSpace=wrap;html=1;" vertex="1" parent="WIyWlLk6GJQsqaUBKTNV-1">
          <mxGeometry x="170" y="100" width="100" height="50" as="geometry" />
        </mxCell>
        <mxCell id="QM12SLwJ1Zczv1HlC3ZJ-10" value="" style="edgeStyle=orthogonalEdgeStyle;rounded=0;orthogonalLoop=1;jettySize=auto;html=1;" edge="1" parent="WIyWlLk6GJQsqaUBKTNV-1" source="QM12SLwJ1Zczv1HlC3ZJ-1" target="QM12SLwJ1Zczv1HlC3ZJ-9">
          <mxGeometry relative="1" as="geometry" />
        </mxCell>
        <mxCell id="QM12SLwJ1Zczv1HlC3ZJ-1" value="Buka Website" style="whiteSpace=wrap;html=1;" vertex="1" parent="WIyWlLk6GJQsqaUBKTNV-1">
          <mxGeometry x="160" y="190" width="120" height="60" as="geometry" />
        </mxCell>
        <mxCell id="QM12SLwJ1Zczv1HlC3ZJ-13" value="" style="edgeStyle=orthogonalEdgeStyle;rounded=0;orthogonalLoop=1;jettySize=auto;html=1;" edge="1" parent="WIyWlLk6GJQsqaUBKTNV-1" source="QM12SLwJ1Zczv1HlC3ZJ-9" target="QM12SLwJ1Zczv1HlC3ZJ-12">
          <mxGeometry relative="1" as="geometry" />
        </mxCell>
        <mxCell id="QM12SLwJ1Zczv1HlC3ZJ-9" value="Login" style="whiteSpace=wrap;html=1;" vertex="1" parent="WIyWlLk6GJQsqaUBKTNV-1">
          <mxGeometry x="160" y="290" width="120" height="60" as="geometry" />
        </mxCell>
        <mxCell id="QM12SLwJ1Zczv1HlC3ZJ-21" style="edgeStyle=orthogonalEdgeStyle;rounded=0;orthogonalLoop=1;jettySize=auto;html=1;exitX=1;exitY=0.5;exitDx=0;exitDy=0;verticalAlign=top;" edge="1" parent="WIyWlLk6GJQsqaUBKTNV-1" source="QM12SLwJ1Zczv1HlC3ZJ-12">
          <mxGeometry relative="1" as="geometry">
            <mxPoint x="220" y="370" as="targetPoint" />
            <Array as="points">
              <mxPoint x="340" y="470" />
            </Array>
          </mxGeometry>
        </mxCell>
        <mxCell id="QM12SLwJ1Zczv1HlC3ZJ-23" value="" style="edgeStyle=orthogonalEdgeStyle;rounded=0;orthogonalLoop=1;jettySize=auto;html=1;" edge="1" parent="WIyWlLk6GJQsqaUBKTNV-1" source="QM12SLwJ1Zczv1HlC3ZJ-12" target="QM12SLwJ1Zczv1HlC3ZJ-22">
          <mxGeometry relative="1" as="geometry" />
        </mxCell>
        <mxCell id="QM12SLwJ1Zczv1HlC3ZJ-12" value="Valid?" style="rhombus;whiteSpace=wrap;html=1;" vertex="1" parent="WIyWlLk6GJQsqaUBKTNV-1">
          <mxGeometry x="180" y="430" width="80" height="80" as="geometry" />
        </mxCell>
        <mxCell id="QM12SLwJ1Zczv1HlC3ZJ-25" value="" style="edgeStyle=orthogonalEdgeStyle;rounded=0;orthogonalLoop=1;jettySize=auto;html=1;" edge="1" parent="WIyWlLk6GJQsqaUBKTNV-1" source="QM12SLwJ1Zczv1HlC3ZJ-22" target="QM12SLwJ1Zczv1HlC3ZJ-24">
          <mxGeometry relative="1" as="geometry" />
        </mxCell>
        <mxCell id="QM12SLwJ1Zczv1HlC3ZJ-22" value="Dashboard" style="whiteSpace=wrap;html=1;" vertex="1" parent="WIyWlLk6GJQsqaUBKTNV-1">
          <mxGeometry x="160" y="570" width="120" height="60" as="geometry" />
        </mxCell>
        <mxCell id="QM12SLwJ1Zczv1HlC3ZJ-27" value="" style="edgeStyle=orthogonalEdgeStyle;rounded=0;orthogonalLoop=1;jettySize=auto;html=1;" edge="1" parent="WIyWlLk6GJQsqaUBKTNV-1" source="QM12SLwJ1Zczv1HlC3ZJ-24" target="QM12SLwJ1Zczv1HlC3ZJ-26">
          <mxGeometry relative="1" as="geometry" />
        </mxCell>
        <mxCell id="QM12SLwJ1Zczv1HlC3ZJ-24" value="Data Barang" style="whiteSpace=wrap;html=1;" vertex="1" parent="WIyWlLk6GJQsqaUBKTNV-1">
          <mxGeometry x="160" y="690" width="120" height="60" as="geometry" />
        </mxCell>
        <mxCell id="QM12SLwJ1Zczv1HlC3ZJ-32" value="" style="edgeStyle=orthogonalEdgeStyle;rounded=0;orthogonalLoop=1;jettySize=auto;html=1;fontSize=9;" edge="1" parent="WIyWlLk6GJQsqaUBKTNV-1" source="QM12SLwJ1Zczv1HlC3ZJ-26" target="QM12SLwJ1Zczv1HlC3ZJ-31">
          <mxGeometry relative="1" as="geometry" />
        </mxCell>
        <mxCell id="QM12SLwJ1Zczv1HlC3ZJ-26" value="Logout" style="whiteSpace=wrap;html=1;" vertex="1" parent="WIyWlLk6GJQsqaUBKTNV-1">
          <mxGeometry x="160" y="810" width="120" height="60" as="geometry" />
        </mxCell>
        <mxCell id="QM12SLwJ1Zczv1HlC3ZJ-29" value="Tidak" style="text;strokeColor=none;align=center;fillColor=none;html=1;verticalAlign=middle;whiteSpace=wrap;rounded=0;fontSize=9;" vertex="1" parent="WIyWlLk6GJQsqaUBKTNV-1">
          <mxGeometry x="263" y="445" width="60" height="30" as="geometry" />
        </mxCell>
        <mxCell id="QM12SLwJ1Zczv1HlC3ZJ-30" value="Yes" style="text;strokeColor=none;align=center;fillColor=none;html=1;verticalAlign=middle;whiteSpace=wrap;rounded=0;fontSize=9;" vertex="1" parent="WIyWlLk6GJQsqaUBKTNV-1">
          <mxGeometry x="203" y="519" width="60" height="30" as="geometry" />
        </mxCell>
        <mxCell id="QM12SLwJ1Zczv1HlC3ZJ-31" value="End" style="ellipse;whiteSpace=wrap;html=1;" vertex="1" parent="WIyWlLk6GJQsqaUBKTNV-1">
          <mxGeometry x="180" y="940" width="80" height="40" as="geometry" />
        </mxCell>
      </root>
    </mxGraphModel>
  </diagram>
</mxfile>
